<?xml version="1.0"?>
<svg width="576" height="576" xmlns="http://www.w3.org/2000/svg" xmlns:svg="http://www.w3.org/2000/svg" enable-background="new 0 0 576 576" version="1.1" xml:space="preserve">

 <g class="layer">
  <title>Layer 1</title>
  <path d="m457.09,396.75c10.74,4.43 21.4,9.05 32.23,13.25c10.45,4.05 20.99,7.93 31.66,11.36c4.74,1.53 10.32,0.84 14.75,2.84c5.49,2.48 11.36,5.12 14.49,11.17c1.04,2.02 3.18,3.48 4.81,5.19c0.58,0.59 1.65,1.18 1.66,1.78c0.09,8.44 8.57,11.51 11.53,18.18c2.19,4.94 5.42,9.4 8.48,13.78c0.3,1.41 0.3,3.13 0,5.11c-2.04,-2.6 -3.78,-5.46 -5.65,-8.54c-6.75,6.59 0,12.44 -0.57,18.49c2.41,-0.14 4.46,-0.25 6.52,-0.36c0,2.04 0,4.08 -0.39,6.56c-3.98,0.35 -6.17,1.97 -7.01,5.76c-1.58,0.09 -2.88,-0.22 -4.03,0.05c-1.22,0.29 -3.06,0.92 -3.31,1.78c-1.89,6.51 -3.36,13.14 -5.16,19.68c-1.78,6.47 -5.55,11.46 -11.71,14.58c-0.43,10.22 -3.45,14.97 -10.07,15.29c0.94,-5.23 1.71,-10.44 2.86,-15.56c0.75,-3.32 2.42,-6.46 3.02,-9.8c1.5,-8.44 2.68,-16.94 3.89,-25.44c2.13,-15 3.75,-30.12 11.48,-43.34c-1.63,-0.89 -4.09,-1.77 -4.01,-2.25c0.39,-2.5 1.43,-4.91 2.24,-7.35c0.31,-1.62 0,-3.77 -1.15,-5.28c-0.94,-1.24 -2.88,-1.71 -4.37,-2.52c-0.47,1.3 -1.24,2.57 -1.35,3.91c-0.31,3.62 0.01,7.33 -0.55,10.9c-1.22,7.85 -3.91,15.63 -3.99,23.47c-0.09,8.11 -4.53,14.78 -4.9,22.95c-0.6,13.34 -4.9,26.32 -8.89,39.2c-1.22,3.94 -3.42,7.28 -4.55,10.83c-1.41,4.4 -2.37,8.67 -4.48,13.02c-1.58,3.26 -1.95,5.87 -5.96,5.68c0.49,2.07 0.94,3.97 1.39,5.88c-46.69,0 -93.38,0 -140.59,-0.39c1.27,-1.11 3.12,-2.53 4.85,-2.4c4.47,0.34 5.72,-0.21 6.91,-4.37c-4.89,0.61 -9.86,1.22 -14.78,1.83c-0.15,2.05 -0.27,3.69 -0.39,5.33c-2.7,0 -5.4,0 -8.51,-0.39c0.13,-4.65 0.87,-8.9 1.1,-13.16c0.08,-1.46 -1.14,-2.99 -1.76,-4.48c-1.25,1.16 -3.73,2.56 -3.56,3.46c1.08,5.71 -1.89,10.01 -4.27,14.57c-19.35,0 -38.71,0 -58.5,-0.38c0.7,-6.59 1.84,-12.79 2.98,-18.99c-0.72,-0.16 -1.44,-0.31 -2.15,-0.46c-1.45,6.61 -2.89,13.22 -4.33,19.83c-15.35,0 -30.71,0 -46.52,-0.43c-0.99,-3.74 -1.53,-7.05 -2.14,-10.82c-3.57,3.06 -6.09,5.23 -8.82,7.57c0.12,0.91 0.3,2.3 0.48,3.68c-22.69,0 -45.38,0 -68.48,-0.37c1.08,-1.61 2.39,-3.47 4.08,-3.95c3.38,-0.95 4.38,-2.83 4.2,-5.28c-4.77,0 -9.13,-0.1 -13.49,0.08c-0.99,0.04 -2.39,0.81 -2.84,1.65c-1.36,2.52 -2.34,5.23 -3.47,7.87c-22.35,0 -44.71,0 -67.4,-0.35c0.24,-1.83 1.22,-3.29 1.31,-4.8c0.52,-8.71 0.99,-17.44 1.16,-26.16c0.07,-3.82 -0.45,-7.67 -1.01,-11.46c-0.38,-2.61 -2.4,-5.48 -1.75,-7.65c1.49,-4.97 -1.66,-6.11 -4.81,-7.52c-1.92,-0.86 -3.99,-1.39 -6.31,-2.17c-1.09,4.48 -2.15,8.82 -3.25,13.31c3.57,-0.39 5.76,0.8 4.18,5.54c-0.53,1.61 0.51,3.7 0.12,5.4c-1.01,4.42 1.97,9.8 -3.24,13.16c3.36,6.13 1.4,11.11 -2.55,14.84c0.61,3.07 1.08,5.47 1.55,7.86c-3.03,0 -6.06,0 -9.51,-0.41c0.48,-5.66 -6.28,-10.64 -1.74,-15.03c-2.85,-5.85 -5.43,-11.14 -8.01,-16.42c-0.53,0.03 -1.05,0.06 -1.58,0.1c-0.72,10.58 -1.44,21.17 -2.16,31.76c-0.44,0 -0.89,0 -1.77,-0.37c-1.13,-2.41 -1.99,-4.41 -2.48,-6.5c-1.91,-8.22 -3.7,-16.46 -5.58,-24.68c-0.21,-0.94 -0.79,-2.57 -1.16,-2.56c-4.76,0.12 -5.48,-3.5 -6.17,-6.92c-2.52,1.08 -4.63,1.97 -6.75,2.88c3.87,6.42 3.55,14.15 -0.4,15.62c1.44,1.31 2.96,2.7 4.06,3.7c-1.95,4.91 -2.05,8.59 0.51,12.44c1.16,1.74 1.19,4.24 1.74,6.39c-10.64,0 -21.28,0 -32,0c0,-45.69 0,-91.38 0,-137.53c0.96,-0.97 2.09,-1.28 2.84,-1.99c7.73,-7.28 15.07,-15.02 23.22,-21.79c4.47,-3.71 10.35,-5.68 15.48,-8.64c19.83,-11.44 42.01,-16.34 63.54,-23.05c11.18,-3.48 22.28,-7.22 33.44,-10.77c1.22,-0.38 2.6,-0.27 5.21,-0.5c-2.01,-5.26 -3.7,-10.28 -5.82,-15.11c-4.05,-9.18 -7.81,-18.77 -5.59,-28.69c1.48,-6.62 5.6,-12.83 9.35,-18.71c2.42,-3.79 6.32,-6.63 9.49,-9.95c0.65,-0.68 1.26,-1.59 1.46,-2.48c1.73,-7.89 6.51,-13.84 12.26,-19.08c2.42,-2.21 2.27,-4.17 1.16,-6.94c-2.95,-7.38 -5.86,-14.79 -5.11,-23.05c0.17,-1.87 -0.53,-3.82 -0.46,-6.18c1.41,1.13 2.21,2.99 3.58,4.21c2.52,2.24 2.39,4.74 2.67,7.87c0.42,4.69 2.47,9.39 4.57,13.73c1.97,4.05 5.44,7.4 7.29,11.48c4.17,9.19 10.12,15.23 20.56,17.6c13.07,2.96 26.01,2.71 39.07,1.46c17.68,-1.69 31.02,-9 35.83,-27.68c1.05,-4.07 3.53,-7.89 5.88,-11.48c4.17,-6.37 12.97,-6.28 16.89,0.15c3.46,5.67 6.73,11.49 9.61,17.47c6.72,14 21.41,21.96 36.84,19.58c0.73,-0.11 1.38,-0.73 2.09,-1.04c1.82,-0.78 3.6,-1.89 5.5,-2.2c8.63,-1.41 17.34,-2.42 25.95,-3.94c3.64,-0.64 7.11,-2.2 11.15,-3.5c-0.47,1.02 -0.55,1.58 -0.88,1.85c-1.4,1.16 -2.83,2.32 -4.34,3.35c-4.98,3.4 -6.13,7.17 -3.44,12.63c0.56,1.12 2.08,2.21 3.29,2.39c0.82,0.13 1.99,-1.27 2.82,-2.15c1.6,-1.71 3.07,-3.54 4.6,-5.32c0,0 0.01,0.02 0.08,0.4c-1.96,6.33 -4.6,12.17 -1.53,18.63c0.44,0.93 -0.26,2.64 -0.85,3.77c-3.88,7.33 -4.14,15.8 -8.13,23.36c-2.72,5.16 -5.12,10.56 -8.38,15.52c-2.26,3.43 -3.95,7.23 -6.29,10.59c-1.08,1.55 -3.21,2.33 -4.7,3.64c-1.18,1.05 -2.5,2.22 -3.06,3.61c-2.24,5.56 -4.66,11.12 -10.11,14.08c-3.83,2.08 -6.62,4.24 -6.94,8.75c-1.58,0.88 -2.59,2.08 -3.05,3.45c-0.5,1.52 -0.43,4.61 -0.69,4.62c-4.36,0.14 -3.3,3.95 -4.48,6.2c-1.39,2.66 -2.87,5.27 -4.43,8.14c-1.95,-1.86 -3.09,-2.94 -4.25,-4.05c-5.08,4.21 -9.78,8.26 -14.7,12.03c-0.91,0.7 -2.71,0.14 -4.08,0.33c-2.32,0.32 -4.62,0.78 -6.93,1.18c0.04,0.35 0.09,0.71 0.13,1.07c-10.49,0 -20.97,0 -31.46,0c-0.14,0.71 -0.27,1.41 -0.41,2.12c5.41,1.62 10.87,3.11 16.21,4.92c2.08,0.7 4.69,1.63 5.7,3.29c3.01,4.89 6.56,6.75 12.38,5.35c4.9,-1.18 9.98,3.05 9.05,6.99c-1.91,8.16 -8.8,16.94 -19.46,11.9c-3.89,-1.84 -7.33,-4.93 -10.52,-7.92c-6.28,-5.87 -12.18,-12.13 -18.33,-18.14c-5.68,-5.55 -11.97,-10.55 -17.09,-16.56c-8.29,-9.72 -15.84,-20.07 -23.67,-30.17c-3.33,-4.3 -6.56,-8.65 -9.84,-12.98c-0.43,0.27 -0.86,0.54 -1.29,0.81c0.51,1.32 0.81,2.78 1.56,3.95c4.79,7.46 7.57,16.01 14.09,22.59c6.27,6.33 11.43,13.79 16.88,20.9c1.9,2.47 3.21,5.38 4.52,7.63c-3.98,0.3 -9.72,-0.15 -10.02,0.92c-1.17,4.16 -6.27,7.39 -4.03,13.23c3,-3.29 5.47,-6 8.5,-9.31c1.66,2.08 3.36,3.37 3.9,5.04c1.7,5.2 3.21,10.49 4.32,15.84c1.12,5.4 1.68,10.93 2.12,16.34c-1.82,0.13 -4.27,-0.11 -4.57,0.58c-1.74,4.03 -2.9,8.27 0.85,13.21c0.84,-2.36 1.47,-3.92 1.96,-5.53c0.75,-2.45 1.4,-4.94 2.34,-7.11c2.26,0.69 4.27,1.09 6.45,1.8c0.29,4.84 2.19,6.94 6.96,5.42c0.22,-1.81 0.43,-3.49 0.64,-5.25c-2.25,-0.45 -4.15,-0.83 -5.82,-1.48c0.9,-1.56 1.56,-2.84 2.27,-4.2c-1.66,-1.58 -3.3,-3.13 -5.62,-5.34c2.01,-2.16 3.89,-4.16 5.84,-6.25c-0.87,-1.09 -1.96,-2.46 -3.04,-4.1c0.02,-0.44 0.02,-0.62 0.21,-1.01c0.51,-0.37 0.84,-0.53 1.47,-0.72c0.71,-0.07 1.12,-0.11 1.86,-0.25c3.64,-2.19 4.87,0.57 6.03,2.6c4.62,8.09 9.56,15.81 16.78,21.98c2.8,2.41 4.73,5.88 6.89,8.99c1.86,2.69 0.44,7.42 5.29,8.36c0.41,0.08 0.79,1.78 0.71,2.7c-0.25,3.13 -0.7,6.24 -1.09,9.35c-0.92,7.4 -0.21,14.49 3.59,21.27c1.71,-5.68 5.41,-8.71 10.85,-10.17c0.38,3.13 0.72,6.02 1.07,8.9c0.55,0.03 1.1,0.07 1.65,0.1c1.49,-5.5 3.33,-10.93 4.36,-16.51c0.77,-4.2 2.43,-6.6 6.85,-7.11c6.84,-0.8 13.71,-1.58 20.44,-2.95c4.8,-0.97 6,-0.59 6.97,4.08c0.65,3.15 2.46,4.71 5.09,1.87c1.6,-1.74 2.99,-4.08 3.48,-6.37c1.72,-8.07 3.02,-16.23 4.45,-24.37c0.81,-4.56 1.57,-9.14 2.36,-13.71c0.54,0.07 1.09,0.13 1.64,0.19c0,5.56 0,11.12 0,16.68c0.49,0.07 0.98,0.13 1.48,0.2c1.03,-3.63 2.07,-7.26 3.11,-10.88c0.42,-0.02 0.84,-0.03 1.26,-0.05c0.34,1.09 1.04,2.21 0.96,3.26c-0.52,6.77 -1.18,13.53 -1.86,20.29c-0.67,6.74 0.85,8.94 7.67,10.62c1.74,0.43 3.53,0.65 6.07,1.1c-2.32,4.29 -4.49,8.3 -6.78,12.55c0.85,1.36 2.13,3.42 3.55,5.72c-1.57,0.64 -2.31,1.08 -3.1,1.24c-6.36,1.3 -7.37,2.71 -6.04,9.16c0.61,2.97 1.28,5.75 -2.95,6.37c0.21,0.92 0.43,1.85 0.77,3.17c0.58,1.8 0.84,4.25 1.51,4.37c1.69,0.3 3.56,-0.46 5.35,-0.79c-0.04,-0.48 -0.09,-0.95 -0.13,-1.43c-1.68,-0.91 -3.35,-1.82 -4.76,-2.98c7.32,-4.51 14.96,-5.44 23.84,-4.2c0.24,-2.98 0.49,-6.04 0.74,-9.1c1.24,-3.97 9.33,-2.32 8.14,-10.11c-2.86,0.33 -5.53,0.63 -8.69,0.99c0.36,-1.52 0.65,-2.57 0.86,-3.64c1.13,-5.62 2.15,-6.24 7.9,-5.21c1.4,0.25 2.9,-0.03 4.15,0.27c-1.07,1.89 -1.93,3.43 -2.79,4.97c0.85,0.25 1.87,0.92 2.52,0.66c2.57,-1.02 5.02,-2.34 8.71,-4.12c-3.26,-0.92 -5.29,-1.49 -6.94,-2.08c3.9,-1.75 7.43,-3.49 11.77,-5.63c-2.6,-1.96 -3.85,-2.91 -5.11,-3.87c0.14,-0.43 0.28,-0.86 0.43,-1.3c1.6,0.48 3.25,0.84 4.79,1.47c3.7,1.49 7.33,-0.83 7.67,-4.84c0.12,-1.4 0.4,-3.06 1.25,-4.07c2.48,-2.98 5.28,-5.69 7.93,-8.48c-1.64,-1.44 -2.87,-2.53 -4.09,-3.6c5.35,-4.77 4.9,-15.92 16.67,-12.96c-0.06,-0.52 -0.11,-1.03 -0.17,-1.54c-1.4,-1.28 -2.8,-2.55 -4.31,-3.92c3.06,-1.78 5.95,-3.47 8.95,-5.22c-1.73,-1.14 -2.97,-1.96 -4.41,-2.91c4,-3.5 10.29,-2.35 12.2,-8.64c-2.56,0.28 -4.31,0.48 -6.16,0.68c2.2,-7.06 1.61,-9.09 -2.42,-10.64c0.16,-2 0.3,-3.84 0.52,-6.66c1.75,-0.43 4.5,-0.83 6.99,-1.86c1.22,-0.51 2.56,-2.11 2.76,-3.38c0.28,-1.84 -0.42,-3.83 -0.77,-6.19c-2.94,-3.6 -6.43,-7.86 -9.99,-12.22c1.59,-1 3.25,-2.03 6.66,-4.17c-2.12,-1.41 -3.96,-2.17 -5.09,-3.52c-1.74,-2.06 -3,-4.54 -4.46,-6.84m100.75,54.95c-0.11,-0.04 -0.22,-0.08 -0.33,-0.12c0.19,0.12 0.38,0.24 0.58,0.63c0.07,0 0.15,0 0.22,0c-0.1,-0.07 -0.2,-0.14 -0.47,-0.51m-282.52,-120.14c1.45,-0.5 2.91,-1 4.68,-1.62c1.06,5.22 2.79,9.74 2.67,14.21c-0.15,5.9 1.8,7.94 7.71,7.1c5.5,-0.78 11.16,-1.01 16.69,-0.65c3.92,0.25 7.77,1.77 11.59,2.94c1.09,0.33 1.95,1.41 2.92,2.14c-1.11,0.73 -2.14,1.88 -3.34,2.1c-6.48,1.19 -12.98,2.19 -19.5,3.15c-1.59,0.24 -3.23,0.1 -4.85,0.16c-9.9,0.33 -19.81,0.71 -29.71,0.98c-4.91,0.13 -9.83,0.25 -14.73,0.04c-3.34,-0.14 -6.43,-0.3 -8.74,3.82c2.4,0.3 4.16,0.73 5.91,0.7c8.76,-0.13 17.53,-0.74 26.28,-0.54c16.07,0.38 32.12,1.25 48.19,1.8c2.45,0.09 5.2,0.21 7.35,-0.74c6.52,-2.89 12.87,-6.04 20.68,-2.92c-2.18,-6.27 -2.18,-6.27 0.98,-12.67c1.5,-3.02 1.35,-5.85 -1.48,-7.98c-3.09,-2.34 -5.95,-5.33 -10.56,-4.19c-0.82,0.21 -2.03,-0.75 -2.95,-1.35c-1.81,-1.2 -3.54,-2.52 -4.8,-3.42c-1.83,-5.25 -3.66,-10.5 -5.38,-15.41c-10.14,1.57 -18.66,3.38 -26.59,8.96c-3.89,2.73 -10.97,4.78 -16.63,-0.18c-2.44,-2.14 -5.61,-3.67 -8.71,-4.74c-1.46,-0.51 -3.53,0.72 -5.32,1.17c0.69,1.33 1.13,2.91 2.14,3.92c1.37,1.37 3.17,2.29 5.5,3.22m-21.89,238.34c2.13,-2.15 5.06,-3.96 6.17,-6.54c1.06,-2.47 2.14,-2.76 4.31,-2.77c1.93,-0.01 4.85,0.16 5.59,-0.93c2.94,-4.3 7.89,-8.29 4.35,-14.65c-0.2,-0.37 0.64,-1.32 1.06,-2.12c1.48,0.9 2.66,1.62 3.32,2.03c2.2,-1.63 3.95,-2.92 5.7,-4.21c1.05,1.91 2.11,3.82 3.16,5.73c0.43,0.03 0.86,0.06 1.28,0.09c0.37,-4.24 0.73,-8.49 1.04,-12.22c-5.83,2.26 -10.84,4.2 -17.34,6.73c1.02,-5.26 1.73,-8.93 2.45,-12.62c-6.14,0.46 -7.13,-0.34 -6.75,6.13c-1.79,0 -3.55,0 -6.33,0c1.93,-1.83 3.07,-2.9 4.22,-3.99c-4.31,-3.61 -8.93,-3.41 -9.77,0.26c-0.4,1.79 -1.33,3.47 -1.73,5.26c-0.35,1.53 -0.8,3.34 -0.32,4.71c1.78,5.01 0.51,9.65 -2.13,13.63c-3.97,6 -4.46,12.02 -0.29,19.22c0.62,-1.14 1.16,-2.12 2.01,-3.74m59.79,-184.22c1.87,-0.12 3.74,-0.23 5.66,-0.35c-0.62,-4.52 -3.03,-5.35 -6.48,-5.07c-7.72,0.61 -15.46,0.99 -23.18,1.6c-1.42,0.12 -2.79,0.91 -4.19,1.38c0.12,0.82 0.24,1.63 0.36,2.44c8.96,0 17.93,0 27.83,0m-23.75,127.76c1.36,-2.96 2.72,-5.93 4.13,-8.99c-4.59,-0.52 -7.87,2.39 -7.69,6c0.16,3.3 -0.25,6.62 -0.4,9.94c-0.5,0.02 -1,0.05 -1.5,0.08c1.39,1.95 2.77,3.89 4.15,5.83c0.51,-0.15 1.01,-0.3 1.52,-0.44c0,-3.87 0,-7.74 -0.21,-12.42m-118.95,47.89c-0.9,0.69 -1.8,1.38 -2.9,2.22c4.84,0.75 9.47,1.6 13.1,-2.58c-2.08,-1.96 -3.95,-3.73 -5.92,-5.58c-2.27,1.06 -4.81,2.24 -7.99,3.72c1.59,0.86 2.44,1.31 3.71,2.22m143.39,-5.54c-0.28,-1.48 -0.57,-2.95 -0.85,-4.42c-0.7,0.01 -1.39,0.02 -2.08,0.03c-0.42,5.92 -0.89,11.84 -1.16,17.77c-0.02,0.41 1.44,0.89 2.33,1.41c0.61,-4.91 1.17,-9.43 1.76,-14.79m1.01,-15.88c-0.81,-2.25 -2.55,-2.72 -3.22,-0.46c-0.73,2.47 -0.16,5.32 -0.16,8.01c0.64,0.02 1.28,0.04 1.92,0.06c0.53,-2.27 1.07,-4.55 1.46,-7.61m161.43,-53.13c2.19,-0.36 4.38,-0.72 6.57,-1.07c-0.23,-0.97 -0.46,-1.93 -0.69,-2.89c-2.48,0.76 -4.97,1.53 -7.45,2.3c0.29,0.46 0.59,0.92 1.57,1.66z" fill="#DCDCDC" id="svg_2" opacity="1"/>
  <path d="m516.47,577c-0.92,-1.91 -1.37,-3.81 -1.86,-5.88c4.01,0.19 4.38,-2.42 5.96,-5.68c2.11,-4.35 3.07,-8.62 4.48,-13.02c1.13,-3.55 3.33,-6.89 4.55,-10.83c3.99,-12.88 8.29,-25.86 8.89,-39.2c0.37,-8.17 4.81,-14.84 4.9,-22.95c0.08,-7.84 2.77,-15.62 3.99,-23.47c0.56,-3.57 0.24,-7.28 0.55,-10.9c0.11,-1.34 0.88,-2.61 1.35,-3.91c1.49,0.81 3.43,1.28 4.37,2.52c1.15,1.51 1.46,3.66 1.15,5.28c-0.81,2.44 -1.85,4.85 -2.24,7.35c-0.08,0.48 2.38,1.36 4.01,2.25c-7.73,13.22 -9.35,28.34 -11.48,43.34c-1.21,8.5 -2.39,17 -3.89,25.44c-0.6,3.34 -2.27,6.48 -3.02,9.8c-1.15,5.12 -1.92,10.33 -2.86,15.56c6.62,-0.32 9.64,-5.07 10.07,-15.29c6.16,-3.12 9.93,-8.11 11.71,-14.58c1.8,-6.54 3.27,-13.17 5.16,-19.68c0.25,-0.86 2.09,-1.49 3.31,-1.78c1.15,-0.27 2.45,0.04 4.02,0.35c0.3,1.39 0.76,3.07 0.19,3.57c-5.17,4.5 -2.97,10.89 -5.35,17.66c3.07,-1.23 4.9,-1.97 6.73,-2.69c1.94,-0.77 3.89,-1.51 5.84,-2.26c0,19.55 0,39.1 0,59c-5.01,0 -10.04,0 -15.53,-0.37c1.8,-4.51 4.08,-8.66 6.36,-12.8c-0.5,-0.34 -1,-0.67 -1.5,-1.01c-1.18,1.57 -2.37,3.15 -4.03,5.36c-0.77,-1.35 -1.76,-2.38 -1.96,-3.54c-1.02,-5.82 3.17,-7.87 7.38,-9.99c2.62,-1.33 5.05,-3.05 8.33,-5.07c-6.38,-3.65 -10.63,0.59 -15.23,1.3c-0.24,-0.49 -0.48,-0.97 -0.72,-1.46c3.79,-2.49 7.57,-4.98 10.12,-6.65c1.21,-2.42 2.15,-3.96 2.78,-5.63c0.53,-1.37 0.69,-2.87 1.01,-4.32c-4.65,-0.43 -3.81,-4.51 -5,-8.57c-2.59,1.37 -5,2.41 -7,3.95c-0.28,0.22 1.38,2.95 2.25,4.75c-4.12,3.68 -11.39,6.03 -7.56,13.74c-2.46,1.9 -4.5,3.46 -6.54,5.03c0.2,0.27 0.41,0.54 0.61,0.8c1.25,-0.37 2.5,-0.74 3.75,-1.11c0.26,0.37 0.52,0.73 0.78,1.1c-3.09,2.75 -6.18,5.5 -9.26,8.25c0.34,0.4 0.68,0.81 1.02,1.21c0.9,-0.53 1.74,-1.26 2.71,-1.55c0.66,-0.2 1.95,-0.03 2.16,0.39c0.36,0.71 0.49,2.14 0.04,2.57c-3.61,3.39 -7.38,6.62 -10.31,9.21c1.08,1.42 2.21,2.91 3.34,4.41c-9.35,0 -18.71,0 -28.53,0m16.86,-17.92c-3.14,2.27 -2.44,5.21 -1.2,8.4c1.82,-2.31 3.07,-4.83 4.18,-7.41c0.03,-0.06 -1.5,-0.79 -2.98,-0.99z" fill="#686868" id="svg_3" opacity="1"/>
  <path d="m74.46,577c-0.93,-2.39 -1.4,-4.79 -2.01,-7.86c3.95,-3.73 5.91,-8.71 2.55,-14.84c5.21,-3.36 2.23,-8.74 3.24,-13.16c0.39,-1.7 -0.65,-3.79 -0.12,-5.4c1.58,-4.74 -0.61,-5.93 -4.18,-5.54c1.1,-4.49 2.16,-8.83 3.25,-13.31c2.32,0.78 4.39,1.31 6.31,2.17c3.15,1.41 6.3,2.55 4.81,7.52c-0.65,2.17 1.37,5.04 1.75,7.65c0.56,3.79 1.08,7.64 1.01,11.46c-0.17,8.72 -0.64,17.45 -1.16,26.16c-0.09,1.51 -1.07,2.97 -1.77,4.8c-4.5,0.35 -8.85,0.35 -13.68,0.35z" fill="#686868" id="svg_4" opacity="1"/>
  <path d="m545.47,577c-1.6,-1.5 -2.73,-2.99 -3.81,-4.41c2.93,-2.59 6.7,-5.82 10.31,-9.21c0.45,-0.43 0.32,-1.86 -0.04,-2.57c-0.21,-0.42 -1.5,-0.59 -2.16,-0.39c-0.97,0.29 -1.81,1.02 -2.71,1.55c-0.34,-0.4 -0.68,-0.81 -1.02,-1.21c3.08,-2.75 6.17,-5.5 9.26,-8.25c-0.26,-0.37 -0.52,-0.73 -0.78,-1.1c-1.25,0.37 -2.5,0.74 -3.75,1.11c-0.2,-0.26 -0.41,-0.53 -0.61,-0.8c2.04,-1.57 4.08,-3.13 6.54,-5.03c-3.83,-7.71 3.44,-10.06 7.56,-13.74c-0.87,-1.8 -2.53,-4.53 -2.25,-4.75c2,-1.54 4.41,-2.58 7,-3.95c1.19,4.06 0.35,8.14 5,8.57c-0.32,1.45 -0.48,2.95 -1.01,4.32c-0.63,1.67 -1.57,3.21 -2.78,5.63c-2.55,1.67 -6.33,4.16 -10.12,6.65c0.24,0.49 0.48,0.97 0.72,1.46c4.6,-0.71 8.85,-4.95 15.23,-1.3c-3.28,2.02 -5.71,3.74 -8.33,5.07c-4.21,2.12 -8.4,4.17 -7.38,9.99c0.2,1.16 1.19,2.19 1.96,3.54c1.66,-2.21 2.85,-3.79 4.03,-5.36c0.5,0.34 1,0.67 1.5,1.01c-2.28,4.14 -4.56,8.29 -6.83,12.8c-5.02,0.37 -10.04,0.37 -15.53,0.37z" fill="#8D8D8D" id="svg_5" opacity="1"/>
  <path d="m33.47,577c-1.02,-2.15 -1.05,-4.65 -2.21,-6.39c-2.56,-3.85 -2.46,-7.53 -0.51,-12.44c-1.1,-1 -2.62,-2.39 -4.06,-3.7c3.95,-1.47 4.27,-9.2 0.4,-15.62c2.12,-0.91 4.23,-1.8 6.75,-2.88c0.69,3.42 1.41,7.04 6.17,6.92c0.37,-0.01 0.95,1.62 1.16,2.56c1.88,8.22 3.67,16.46 5.58,24.68c0.49,2.09 1.35,4.09 2.14,6.5c-4.91,0.37 -9.93,0.37 -15.42,0.37z" fill="#696969" id="svg_6" opacity="1"/>
  <path d="m51.46,577c0.26,-10.59 0.98,-21.18 1.7,-31.76c0.53,-0.04 1.05,-0.07 1.58,-0.1c2.58,5.28 5.16,10.57 8.01,16.42c-4.54,4.39 2.22,9.37 1.29,15.03c-4.06,0.41 -8.09,0.41 -12.58,0.41z" fill="#686868" id="svg_7" opacity="1"/>
  <path d="m577,517.53c-1.95,1.22 -3.9,1.96 -5.84,2.73c-1.83,0.72 -3.66,1.46 -6.73,2.69c2.38,-6.77 0.18,-13.16 5.35,-17.66c0.57,-0.5 0.11,-2.18 0.14,-3.71c0.52,-4.05 2.71,-5.67 6.69,-5.58c0.39,7.02 0.39,14.04 0.39,21.53z" fill="#D6D6D6" id="svg_8" opacity="1"/>
  <path d="m156.46,577c0.67,-2.64 1.65,-5.35 3.01,-7.87c0.45,-0.84 1.85,-1.61 2.84,-1.65c4.36,-0.18 8.72,-0.08 13.49,-0.08c0.18,2.45 -0.82,4.33 -4.2,5.28c-1.69,0.48 -3,2.34 -4.54,3.95c-3.42,0.37 -6.78,0.37 -10.6,0.37z" fill="#6A6A6A" id="svg_9" opacity="1"/>
  <path d="m577,488.55c-2.06,0.56 -4.11,0.67 -6.52,0.81c0.57,-6.05 -6.18,-11.9 0.57,-18.49c1.87,3.08 3.61,5.94 5.65,8.97c0.3,2.86 0.3,5.56 0.3,8.71z" fill="#6A6A6A" id="svg_10" opacity="1"/>
  <path d="m355.44,577c1.94,-4.56 4.91,-8.86 3.83,-14.57c-0.17,-0.9 2.31,-2.3 3.56,-3.46c0.62,1.49 1.84,3.02 1.76,4.48c-0.23,4.26 -0.97,8.51 -1.55,13.16c-2.41,0.39 -4.78,0.39 -7.6,0.39z" fill="#7C7C7C" id="svg_11" opacity="1"/>
  <path d="m236.45,577c-0.63,-1.38 -0.81,-2.77 -0.93,-3.68c2.73,-2.34 5.25,-4.51 8.82,-7.57c0.61,3.77 1.15,7.08 1.67,10.82c-3.04,0.43 -6.07,0.43 -9.56,0.43m2.36,-2.59c0.75,0.11 1.5,0.21 2.25,0.31c0.01,-0.21 0.02,-0.42 0.03,-0.63c-0.62,0 -1.23,0 -2.28,0.32z" fill="#818181" id="svg_12" opacity="1"/>
  <path d="m293.38,577c1.06,-6.61 2.5,-13.22 3.95,-19.83c0.71,0.15 1.43,0.3 2.15,0.46c-1.14,6.2 -2.28,12.4 -3.45,18.99c-0.78,0.38 -1.53,0.38 -2.65,0.38z" fill="#777777" id="svg_13" opacity="1"/>
  <path d="m372.38,577c-0.26,-1.64 -0.14,-3.28 0.01,-5.33c4.92,-0.61 9.89,-1.22 14.78,-1.83c-1.19,4.16 -2.44,4.71 -6.91,4.37c-1.73,-0.13 -3.58,1.29 -5.32,2.4c-0.69,0.39 -1.44,0.39 -2.56,0.39z" fill="#8D8D8D" id="svg_14" opacity="1"/>
  <path d="m457.05,396.78c1.5,2.27 2.76,4.75 4.5,6.81c1.13,1.35 2.97,2.11 5.09,3.52c-3.41,2.14 -5.07,3.17 -6.66,4.17c3.56,4.36 7.05,8.62 9.99,12.22c0.35,2.36 1.05,4.35 0.77,6.19c-0.2,1.27 -1.54,2.87 -2.76,3.38c-2.49,1.03 -5.24,1.43 -6.99,1.86c-0.22,2.82 -0.36,4.66 -0.52,6.66c4.03,1.55 4.62,3.58 2.42,10.64c1.85,-0.2 3.6,-0.4 6.16,-0.68c-1.91,6.29 -8.2,5.14 -12.2,8.64c1.44,0.95 2.68,1.77 4.41,2.91c-3,1.75 -5.89,3.44 -8.95,5.22c1.51,1.37 2.91,2.64 4.31,3.92c0.06,0.51 0.11,1.02 0.17,1.54c-11.77,-2.96 -11.32,8.19 -16.67,12.96c1.22,1.07 2.45,2.16 4.09,3.6c-2.65,2.79 -5.45,5.5 -7.93,8.48c-0.85,1.01 -1.13,2.67 -1.25,4.07c-0.34,4.01 -3.97,6.33 -7.67,4.84c-1.54,-0.63 -3.19,-0.99 -4.79,-1.47c-0.15,0.44 -0.29,0.87 -0.43,1.3c1.26,0.96 2.51,1.91 5.11,3.87c-4.34,2.14 -7.87,3.88 -11.94,5.56c-0.82,-0.08 -1.02,0.04 -1.13,0.3c-1.45,0.04 -2.95,0.32 -4.35,0.07c-5.75,-1.03 -6.77,-0.41 -7.9,5.21c-0.21,1.07 -0.5,2.12 -0.86,3.64c3.16,-0.36 5.83,-0.66 8.69,-0.99c1.19,7.79 -6.9,6.14 -8.14,10.11c-0.25,3.06 -0.5,6.12 -0.74,9.1c-8.88,-1.24 -16.52,-0.31 -24.15,4.17c-0.98,0.3 -1.38,0.38 -1.79,0.46c-0.21,-0.92 -0.43,-1.85 -0.64,-2.77c4.23,-0.62 3.56,-3.4 2.95,-6.37c-1.33,-6.45 -0.32,-7.86 6.04,-9.16c0.79,-0.16 1.53,-0.6 3.1,-1.24c-1.42,-2.3 -2.7,-4.36 -3.55,-5.72c2.29,-4.25 4.46,-8.26 6.78,-12.55c-2.54,-0.45 -4.33,-0.67 -6.07,-1.1c-6.82,-1.68 -8.34,-3.88 -7.67,-10.62c0.68,-6.76 1.34,-13.52 1.86,-20.29c0.08,-1.05 -0.62,-2.17 -0.96,-3.26c-0.42,0.02 -0.84,0.03 -1.26,0.05c-1.04,3.62 -2.08,7.25 -3.11,10.88c-0.5,-0.07 -0.99,-0.13 -1.48,-0.2c0,-5.56 0,-11.12 0,-16.68c-0.55,-0.06 -1.1,-0.12 -1.64,-0.19c-0.79,4.57 -1.55,9.15 -2.36,13.71c-1.43,8.14 -2.73,16.3 -4.45,24.37c-0.49,2.29 -1.88,4.63 -3.48,6.37c-2.63,2.84 -4.44,1.28 -5.09,-1.87c-0.97,-4.67 -2.17,-5.05 -6.97,-4.08c-6.73,1.37 -13.6,2.15 -20.44,2.95c-4.42,0.51 -6.08,2.91 -6.85,7.11c-1.03,5.58 -2.87,11.01 -4.36,16.51c-0.55,-0.03 -1.1,-0.07 -1.65,-0.1c-0.35,-2.88 -0.69,-5.77 -1.07,-8.9c-5.44,1.46 -9.14,4.49 -10.85,10.17c-3.8,-6.78 -4.51,-13.87 -3.59,-21.27c0.39,-3.11 0.84,-6.22 1.09,-9.35c0.08,-0.92 -0.3,-2.62 -0.71,-2.7c-4.85,-0.94 -3.43,-5.67 -5.29,-8.36c-2.16,-3.11 -4.09,-6.58 -6.89,-8.99c-7.22,-6.17 -12.16,-13.89 -16.78,-21.98c-1.16,-2.03 -2.39,-4.79 -6.09,-2.98c-2.34,-8.11 -8.54,-15.05 -14.16,-15.72c0.08,9.16 2.29,12.14 10.66,14.63c0.59,0.17 0.94,1.14 1.4,1.74c-0.33,0.17 -0.66,0.33 -1.45,0.74c-0.28,0.57 -0.11,0.9 0.06,1.23c1.09,1.38 2.18,2.75 3.05,3.84c-1.95,2.09 -3.83,4.09 -5.84,6.25c2.32,2.21 3.96,3.76 5.62,5.34c-0.71,1.36 -1.37,2.64 -2.59,4.23c-0.91,0.53 -1.27,0.74 -1.63,0.96c-2.01,-0.39 -4.02,-0.79 -6.24,-1.68c-0.2,-0.49 -0.25,-0.89 -0.25,-0.89c-0.81,-5.47 -1.37,-11 -2.49,-16.4c-1.11,-5.35 -2.62,-10.64 -4.32,-15.84c-0.54,-1.67 -2.24,-2.96 -3.9,-5.04c-3.03,3.31 -5.5,6.02 -8.5,9.31c-2.24,-5.84 2.86,-9.07 4.03,-13.23c0.3,-1.07 6.04,-0.62 10.02,-0.92c-1.31,-2.25 -2.62,-5.16 -4.52,-7.63c-5.45,-7.11 -10.61,-14.57 -16.88,-20.9c-6.52,-6.58 -9.3,-15.13 -14.09,-22.59c-0.75,-1.17 -1.05,-2.63 -1.56,-3.95c0.43,-0.27 0.86,-0.54 1.29,-0.81c3.28,4.33 6.51,8.68 9.84,12.98c7.83,10.1 15.38,20.45 23.67,30.17c5.12,6.01 11.41,11.01 17.09,16.56c6.15,6.01 12.05,12.27 18.33,18.14c3.19,2.99 6.63,6.08 10.52,7.92c10.66,5.04 17.55,-3.74 19.46,-11.9c0.93,-3.94 -4.15,-8.17 -9.05,-6.99c-5.82,1.4 -9.37,-0.46 -12.38,-5.35c-1.01,-1.66 -3.62,-2.59 -5.7,-3.29c-5.34,-1.81 -10.8,-3.3 -16.21,-4.92c0.14,-0.71 0.27,-1.41 0.41,-2.12c10.49,0 20.97,0 31.46,0c-0.04,-0.36 -0.09,-0.72 -0.13,-1.07c2.31,-0.4 4.61,-0.86 6.93,-1.18c1.37,-0.19 3.17,0.37 4.08,-0.33c4.92,-3.77 9.62,-7.82 14.7,-12.03c1.16,1.11 2.3,2.19 4.25,4.05c1.56,-2.87 3.04,-5.48 4.43,-8.14c1.18,-2.25 0.12,-6.06 4.48,-6.2c0.26,-0.01 0.19,-3.1 0.69,-4.62c0.46,-1.37 1.47,-2.57 3.05,-3.45c0.32,-4.51 3.11,-6.67 6.94,-8.75c5.45,-2.96 7.87,-8.52 10.11,-14.08c0.56,-1.39 1.88,-2.56 3.06,-3.61c1.49,-1.31 3.62,-2.09 4.7,-3.64c2.34,-3.36 4.03,-7.16 6.29,-10.59c3.26,-4.96 5.66,-10.36 8.38,-15.52c3.99,-7.56 4.25,-16.03 8.13,-23.36c0.59,-1.13 1.29,-2.84 0.85,-3.77c-3.07,-6.46 -0.43,-12.3 1.75,-18.55c0.16,-0.58 0.17,-0.84 0.18,-1.09c-0.16,0.2 -0.32,0.4 -0.49,0.6c-1.52,1.79 -2.99,3.62 -4.59,5.33c-0.83,0.88 -2,2.28 -2.82,2.15c-1.21,-0.18 -2.73,-1.27 -3.29,-2.39c-2.69,-5.46 -1.54,-9.23 3.44,-12.63c1.51,-1.03 2.94,-2.19 4.34,-3.35c0.33,-0.27 0.41,-0.83 0.88,-1.85c-4.04,1.3 -7.51,2.86 -11.15,3.5c-8.61,1.52 -17.32,2.53 -25.95,3.94c-1.9,0.31 -3.68,1.42 -5.5,2.2c-0.71,0.31 -1.36,0.93 -2.09,1.04c-15.43,2.38 -30.12,-5.58 -36.84,-19.58c-2.88,-5.98 -6.15,-11.8 -9.61,-17.47c-3.92,-6.43 -12.72,-6.52 -16.89,-0.15c-2.35,3.59 -4.83,7.41 -5.88,11.48c-4.81,18.68 -18.15,25.99 -35.83,27.68c-13.06,1.25 -26,1.5 -39.07,-1.46c-10.44,-2.37 -16.39,-8.41 -20.56,-17.6c-1.85,-4.08 -5.32,-7.43 -7.29,-11.48c-2.1,-4.34 -4.15,-9.04 -4.57,-13.73c-0.28,-3.13 -0.15,-5.63 -2.67,-7.87c-1.37,-1.22 -2.17,-3.08 -3.58,-4.63c-0.42,-0.48 -0.48,-0.98 -0.12,-1.99c0.82,-6.51 1.16,-12.52 1.67,-18.52c0.14,-1.73 0.82,-3.42 1.23,-5.13c0.43,-1.81 1.34,-3.7 1.12,-5.43c-0.37,-2.94 -1.7,-5.75 -2.2,-8.69c-0.78,-4.5 -1.33,-9.06 -1.66,-13.62c-0.06,-0.87 1.23,-2.47 2.12,-2.65c4.99,-1.02 10.82,4.69 10.55,9.74c-0.58,10.59 -1.27,21.08 2.17,31.58c1.57,4.82 3.2,5.98 7.54,4.49c1.24,-0.43 2.55,-0.65 3.83,-0.97c-0.32,-0.43 -0.64,-0.85 -0.96,-1.28c2,-1.81 3.7,-4.27 6.04,-5.29c4.77,-2.08 9.93,-3.24 14.82,-5.07c4.82,-1.8 9.42,-3.8 14.75,-1.47c1.4,0.61 3.53,-0.39 5.31,-0.74c3.47,-0.69 6.91,-1.56 10.39,-2.12c2.95,-0.48 6.08,-0.14 8.89,-0.98c10.88,-3.24 27.94,6.32 28.15,18.42c0.03,1.45 1.86,3.81 3.21,4.1c3.32,0.73 6.86,0.36 10.29,0.67c5.92,0.52 7.85,-3.16 8.58,-8.01c0.27,-1.75 -0.01,-3.57 0.02,-5.35c0.04,-1.6 -0.48,-3.8 0.36,-4.68c4.18,-4.39 8.73,-8.44 13.41,-12.86c1.65,2.4 2.73,3.97 3.23,4.7c4.11,-1.52 7.64,-3.63 11.35,-4.04c9.67,-1.09 19.43,-1.3 29.13,-2.12c3.41,-0.29 7.29,-0.51 9.99,-2.25c3.64,-2.34 6.12,-1.14 8.93,0.67c1.22,0.79 2.27,1.85 3.71,3.04c1.27,-2.19 3.44,-4.17 3.31,-5.98c-0.58,-8.19 1.93,-15.72 3.75,-23.47c1.05,-4.46 0.47,-9.28 1.04,-13.88c1.62,-13.21 3.51,-26.24 -3.77,-38.76c-4.87,-8.37 -13.22,-12.35 -22.02,-8.38c-5.97,2.7 -11.54,6.28 -17.25,9.52c-6.04,3.44 -11.95,7.1 -18.08,10.38c-3.04,1.63 -6.48,2.48 -9.63,3.94c-9.63,4.47 -18.89,10.07 -28.92,13.31c-8.46,2.74 -17.87,2.35 -26.69,4.18c-11.42,2.36 -20.13,-5.16 -30.27,-7.3c-0.35,-0.07 -0.51,-0.81 -0.88,-1.06c-2.93,-1.92 -5.66,-4.47 -8.87,-5.54c-7.15,-2.37 -14.54,-3.99 -21.8,-5.9c-0.15,-2.35 -0.25,-3.78 -0.39,-6.02c-2.97,0.6 -5.64,1.14 -8.96,1.81c-1.26,-1.14 -2.72,-5.25 -6,-0.77c-6.12,8.36 -12.32,16.66 -18.66,24.84c-1.04,1.34 -2.99,1.95 -4.06,2.62c1.57,-7.19 3.08,-14.13 4.8,-21.98c-4.33,1.78 -6.46,1.1 -7.55,-2.14c-1.46,-4.36 -1.41,-8.42 1.29,-12.43c1.15,-1.7 2.64,-4.52 1.98,-5.87c-2.64,-5.46 0.06,-9.51 2.33,-13.96c1.47,-2.89 2.63,-6.03 3.37,-9.18c0.66,-2.8 -0.37,-6.33 0.97,-8.57c3.37,-5.64 7.66,-10.74 11.6,-16.04c0.57,-0.78 1.84,-1.64 1.72,-2.26c-1.34,-6.88 4.3,-10.7 7.32,-15.22c4.06,-6.05 10.02,-10.83 15.17,-16.15c9.05,-5.77 18.11,-11.53 27.16,-17.31c0.69,-0.44 1.29,-1.01 2.69,-1.58c6.65,-1.52 12.54,-2.97 17.03,-4.08c1.3,-2.65 2.12,-4.3 2.93,-5.96c2.16,-0.4 4.32,-0.8 6.78,-0.71c1.11,0.94 1.88,1.73 2.72,1.8c5.71,0.47 11.58,0.11 17.12,1.33c6.78,1.48 13.3,1.31 19.69,-0.77c13.26,-4.31 24.25,0.59 34.9,7.72c2.29,1.53 4.9,2.57 7.42,3.85c0.06,0.02 0.12,0.13 0.34,0.34c0.82,0.29 1.42,0.36 2.37,0.62c4.79,0.69 9.24,1.22 14,1.89c2.2,1.46 4.26,2.6 5.93,4.15c10.97,10.18 22.18,20.09 36.63,25.04c5.78,1.98 9.18,5.69 11.08,11.14c1.65,4.71 3.21,9.44 4.72,14.19c3.41,10.74 7.5,21.34 9.98,32.29c4.21,18.63 2.39,37.64 1.56,56.48c-0.62,14.07 -2.42,28.08 -3.79,42.1c-0.36,3.78 0.2,8.63 -1.9,11.06c-4.48,5.19 -3.83,10.78 -3.32,16.37c0.8,8.74 -0.2,17.11 -4.91,24.45c-5.71,8.9 -5.92,18.94 -6.43,28.74c-0.19,3.58 0.29,6.64 -1.79,9.94c-0.97,1.55 -0.25,4.48 0.43,6.53c0.22,0.65 2.86,0.78 4.35,0.65c4.8,-0.43 5.74,0.71 4.08,5.35c-0.33,0.91 -0.63,1.83 -1.4,4.07c3.18,-1.12 5.38,-1.93 7.6,-2.67c4,-1.32 5.23,-0.16 4.91,3.91c-0.32,4.05 -1.3,8.62 4.68,9.89c0.59,0.13 0.86,1.55 1.37,2.3c0.93,1.37 1.94,2.68 2.88,4.04c1.81,2.59 3.59,5.2 5.2,8.15c0.33,1.92 0.86,3.5 0.96,3.81c-1.38,4.22 -2.44,7.47 -3.53,10.81c4.35,1.28 7.59,2.24 10.49,3.1c0.21,-3.23 0.42,-6.54 0.64,-9.85c0.67,0.03 1.34,0.06 2.01,0.09c0.63,8.37 3,16.49 -0.11,25.23c-1.08,3.01 2.03,7.51 3.22,11.34c0.09,2.35 0.17,4.7 -0.11,7.64c-0.12,1.06 0.15,1.51 0.41,1.97c0.29,-0.19 0.59,-0.38 0.89,-0.57c0,0 -0.05,0.09 -0.27,0.44c0.94,0.76 2.11,1.15 3.28,1.55c0,0 -0.05,-0.08 -0.01,-0.1m-292.39,-270.04c2.53,-2.34 5.06,-4.67 7.54,-6.97c-5.55,-0.54 -7.51,1.14 -8.95,7.31c-1.19,1.88 -2.38,3.77 -3.57,5.65c0.75,0.34 1.5,0.69 2.25,1.03c0.71,-2.24 1.42,-4.47 2.73,-7.02m268.16,355.29c2.68,-1.55 5.37,-3.1 8.05,-4.65c-0.27,-0.43 -0.54,-0.86 -0.81,-1.29c-3.49,0.67 -7.62,0.3 -8.4,6c0.15,0.01 0.3,0.03 1.16,-0.06m-27.65,-34c-2.29,-0.69 -6.45,-1.22 -6.52,-2.08c-0.25,-3.18 0.85,-6.47 1.47,-9.87c-0.86,-0.12 -2.63,-0.38 -3.82,-0.55c-1.45,2.47 -2.7,4.6 -4.41,7.51c2.04,3.14 4.59,7.05 6.32,10.99c-2.14,0.43 -4.29,0.86 -6.44,1.29c-0.03,0.5 -0.05,0.99 -0.07,1.48c1.58,1.24 3.15,2.47 4.73,3.71c0.39,-1.72 0.7,-3.47 1.23,-5.15c0.17,-0.54 0.88,-0.92 2.07,-1.45c1.89,-0.2 3.78,-0.4 5.47,-0.57c0.27,-1.88 0.52,-3.62 1.01,-5.42c0,0 0.03,-0.29 0.03,-0.29c0,0 -0.22,0.39 -1.07,0.4m-55.24,-194.27c-0.07,0.03 -0.14,0.06 -0.21,0.09c0.1,0.04 0.19,0.09 0.23,0.83c-0.42,0.62 -1.14,1.82 -1.2,1.78c-4.93,-2.66 -8.52,0.65 -13.53,2.99c2.2,1.6 3.63,3.35 5.4,3.82c7.62,2.06 14.77,0.26 21.34,-3.76c1.32,-0.81 1.88,-2.85 2.8,-4.32c-1.2,-0.73 -2.37,-1.53 -3.61,-2.2c-1.26,-0.67 -2.59,-1.22 -3.9,-1.83c0.02,0.43 0.03,0.86 0.05,1.3c-2.44,0.52 -4.88,1.04 -7.37,1.3m2.49,205.81c-2.72,1.49 -5.81,2.57 -8.11,4.55c-7.78,6.67 -14.39,15.32 -23.16,20.01c-7.11,3.8 -8.25,8.2 -8.64,14.62c-0.11,1.74 -1.23,3.41 -1.83,5.14c-2.31,6.74 -1.05,12.93 3.92,16.98c-0.81,-3.61 5.36,-5.91 0.59,-9.73c-0.84,-0.67 -1.77,-2.59 -1.42,-3.1c0.69,-1.02 2.22,-2 3.42,-2.02c2.67,-0.03 4.34,-0.76 5.23,-3.48c0.5,-1.52 1.54,-3.05 2.74,-4.11c3.72,-3.31 4.7,-6.7 0.76,-10.41c2.33,-1.6 4.33,-2.97 6.44,-4.42c3.06,4.9 7.03,2.9 10.8,1.29c3.18,-1.36 6.12,-3.36 9.36,-4.51c3.56,-1.28 7.34,-1.91 11.02,-2.82c0.34,-0.39 0.67,-0.77 1.01,-1.15c-4.45,-1.95 -4.12,-3.55 -0.25,-4.89c-0.31,-0.41 -0.63,-0.83 -0.95,-1.24c-1.71,0.35 -3.43,0.7 -5.02,1.03c-1.15,-1.27 -2.88,-2.91 -4.27,-4.8c-0.68,-0.93 -0.72,-2.32 -0.46,-3.26c1.15,0.8 2.29,1.6 3.81,2.66c0,-2.04 0,-3.46 0,-5.74c1.19,2.01 1.91,3.23 2.63,4.45c0.58,-0.1 1.15,-0.2 1.73,-0.29c-0.22,-1.53 -0.12,-3.2 -0.74,-4.53c-0.83,-1.78 -2.22,-3.29 -3.74,-5.44c-2.88,0 -4.08,2.44 -4.87,5.21m43.39,-192.09c1.18,-4.13 2.36,-8.25 3.53,-12.38c-0.41,-0.12 -0.81,-0.24 -1.22,-0.36c-1.33,3.7 -2.67,7.41 -4.38,10.53c-1.32,-3.44 -2.62,-6.87 -3.95,-10.3c-0.5,-1.29 -0.84,-3.47 -1.67,-3.69c-3.74,-1.01 -7.51,-2.42 -11.28,0.75c-4.7,3.94 -9.89,7.27 -14.76,11.01c-11.26,8.68 -23.56,8.65 -35.78,3.24c-5.55,-2.46 -10.41,-2.26 -15.74,-0.87c1.35,10.13 8.49,18.64 17.97,20.91c17.27,4.12 34.27,1.57 51.12,-2.62c8.29,-2.06 13.62,-7.33 16.16,-16.22m-143.06,22.98c16.29,-7.59 17.24,-22.82 19.11,-38.01c-1.55,1.26 -2.96,3.26 -3.99,3.09c-3.44,-0.6 -5.01,0.44 -6.32,3.66c-0.79,1.94 -2.89,3.85 -4.86,4.71c-5.13,2.24 -10.48,4.03 -15.84,5.71c-1.6,0.51 -3.5,0.08 -5.27,0.08c10.24,-6.85 11.59,-9.69 6.31,-14.51c-0.84,1.51 -1.65,2.98 -2.94,5.29c-0.72,-2.39 -1.16,-3.87 -1.19,-3.96c-4.87,-1.25 -9.28,-1.54 -12.71,-3.52c-3.04,-1.74 -4.92,-3.05 -8.75,-1.54c-4.03,1.57 -8.77,1.38 -13.22,1.74c-2.4,0.19 -4.18,-0.37 -3.65,-3.69c0.42,-2.59 -6.28,-10.18 -8.8,-10.58c-6.7,-1.07 -11.7,2.84 -11.31,9.68c0.42,7.4 1.02,14.93 2.77,22.09c2.95,12.06 9.46,21 23.04,23.02c15.9,2.37 31.42,0.68 47.62,-3.26m135.15,170.56c-0.7,-3.3 -1.39,-6.6 -2.22,-10.52c-5.9,3.75 -6.72,-2.44 -10.45,-3.65c0.41,2.31 1.3,4.28 2.64,5.87c1.42,1.68 3.63,2.77 4.85,4.55c1.47,2.16 2.26,4.78 3.56,7.67c0.62,-1.41 1.01,-2.3 1.62,-3.92m30.96,-26.5c-1.29,-1.13 -2.4,-2.66 -3.89,-3.29c-2.1,-0.87 -4.54,-0.86 -6.71,-1.6c-3.63,-1.26 -5.19,0.22 -6.12,4.52c5.79,0.38 11.13,0.73 16.72,0.37m-85.35,55.57c-0.83,0.74 -1.97,1.35 -2.38,2.28c-0.23,0.53 0.81,2.33 1.12,2.29c3.14,-0.37 6.25,-1.01 9.36,-1.57c-0.06,-0.48 -0.13,-0.96 -0.19,-1.45c-2.36,-0.49 -4.72,-0.98 -7.91,-1.55m1.62,-239.19c-2.24,0.48 -4.48,0.97 -6.72,1.46c0.03,0.56 0.07,1.12 0.11,1.68c3.31,0.51 6.63,1.02 9.94,1.53c0.21,-0.65 0.42,-1.29 0.62,-1.94c-1.06,-0.87 -2.11,-1.73 -3.95,-2.73m99.02,116.3c-1.97,0.44 -3.94,0.88 -6.85,1.54c3.57,2.66 5.9,5.22 10.11,2.24c-0.93,-1.24 -1.77,-2.34 -3.26,-3.78m-2.55,11.85c-1,-0.27 -2.01,-0.55 -3.01,-0.83c0.92,2.54 2.35,4.28 4.07,5.68c0.77,0.62 2.11,0.75 3.17,0.68c0.38,-0.02 1.14,-1.66 0.94,-1.88c-0.66,-0.76 -1.67,-1.23 -2.55,-1.8c-0.69,-0.45 -1.38,-0.9 -2.62,-1.85m-4.95,39.56c-0.22,-1.35 -0.02,-3.54 -0.73,-3.88c-1.52,-0.75 -3.53,-0.75 -5.29,-0.58c-0.42,0.04 -0.79,1.97 -0.9,3.06c-0.04,0.4 0.74,0.89 1.31,1.51c0.79,-1.35 1.39,-2.38 2.18,-3.73c1.15,1.36 1.99,2.35 3.43,3.62m-12.23,23.15c-1.72,-1.49 -3.44,-2.99 -5.15,-4.49c-0.7,1.26 -1.4,2.52 -2.41,4.36c3.13,0.33 5.32,0.57 7.56,0.13m-27.32,98.16c-1.03,-1.2 -2.06,-2.41 -2.66,-3.1c-1.73,1.36 -3.2,2.5 -4.66,3.65c0.11,0.35 0.23,0.71 0.34,1.06c2.31,-0.33 4.63,-0.66 6.98,-1.61m-17.13,-84.16c-0.96,-1.77 -1.92,-3.53 -3.49,-6.41c0,4.02 0,6.5 0,9.59c1.34,-1.34 2.12,-2.12 3.49,-3.18m5.47,0.15c0.32,-0.42 0.64,-0.84 0.96,-1.26c-0.7,-0.06 -1.4,-0.12 -2.1,-0.19c0.18,0.5 0.36,1 1.14,1.45m12.46,-5.25c0.51,-0.19 1.02,-0.37 1.53,-0.56c-0.11,-0.26 -0.23,-0.52 -0.34,-0.78c-0.53,0.31 -1.06,0.62 -1.19,1.34m40.61,-30.23c0,0 0.05,0.1 0,0z" fill="#4D4D4D" id="svg_15" opacity="1"/>
  <path d="m202,35.67c-4.98,5.66 -10.94,10.44 -15,16.49c-3.02,4.52 -8.66,8.34 -7.32,15.22c0.12,0.62 -1.15,1.48 -1.72,2.26c-3.94,5.3 -8.23,10.4 -11.6,16.04c-1.34,2.24 -0.31,5.77 -0.97,8.57c-0.74,3.15 -1.9,6.29 -3.37,9.18c-2.27,4.45 -4.97,8.5 -2.33,13.96c0.66,1.35 -0.83,4.17 -1.98,5.87c-2.7,4.01 -2.75,8.07 -1.29,12.43c1.09,3.24 3.22,3.92 7.55,2.14c-1.72,7.85 -3.23,14.79 -4.8,21.98c1.07,-0.67 3.02,-1.28 4.06,-2.62c6.34,-8.18 12.54,-16.48 18.66,-24.84c3.28,-4.48 4.74,-0.37 6,0.77c3.32,-0.67 5.99,-1.21 8.96,-1.81c0.14,2.24 0.24,3.67 0.39,6.02c7.26,1.91 14.65,3.53 21.8,5.9c3.21,1.07 5.94,3.62 8.87,5.54c0.37,0.25 0.53,0.99 0.88,1.06c10.14,2.14 18.85,9.66 30.27,7.3c8.82,-1.83 18.23,-1.44 26.69,-4.18c10.03,-3.24 19.29,-8.84 28.92,-13.31c3.15,-1.46 6.59,-2.31 9.63,-3.94c6.13,-3.28 12.04,-6.94 18.08,-10.38c5.71,-3.24 11.28,-6.82 17.25,-9.52c8.8,-3.97 17.15,0.01 22.02,8.38c7.28,12.52 5.39,25.55 3.77,38.76c-0.57,4.6 0.01,9.42 -1.04,13.88c-1.82,7.75 -4.33,15.28 -3.75,23.47c0.13,1.81 -2.04,3.79 -3.31,5.98c-1.44,-1.19 -2.49,-2.25 -3.71,-3.04c-2.81,-1.81 -5.29,-3.01 -8.93,-0.67c-2.7,1.74 -6.58,1.96 -9.99,2.25c-9.7,0.82 -19.46,1.03 -29.13,2.12c-3.71,0.41 -7.24,2.52 -11.35,4.04c-0.5,-0.73 -1.58,-2.3 -3.23,-4.7c-4.68,4.42 -9.23,8.47 -13.41,12.86c-0.84,0.88 -0.32,3.08 -0.36,4.68c-0.03,1.78 0.25,3.6 -0.02,5.35c-0.73,4.85 -2.66,8.53 -8.58,8.01c-3.43,-0.31 -6.97,0.06 -10.29,-0.67c-1.35,-0.29 -3.18,-2.65 -3.21,-4.1c-0.21,-12.1 -17.27,-21.66 -28.15,-18.42c-2.81,0.84 -5.94,0.5 -8.89,0.98c-3.48,0.56 -6.92,1.43 -10.39,2.12c-1.78,0.35 -3.91,1.35 -5.31,0.74c-5.33,-2.33 -9.93,-0.33 -14.75,1.47c-4.89,1.83 -10.05,2.99 -14.82,5.07c-2.34,1.02 -4.04,3.48 -6.04,5.29c0.32,0.43 0.64,0.85 0.96,1.28c-1.28,0.32 -2.59,0.54 -3.83,0.97c-4.34,1.49 -5.97,0.33 -7.54,-4.49c-3.44,-10.5 -2.75,-20.99 -2.17,-31.58c0.27,-5.05 -5.56,-10.76 -10.55,-9.74c-0.89,0.18 -2.18,1.78 -2.12,2.65c0.33,4.56 0.88,9.12 1.66,13.62c0.5,2.94 1.83,5.75 2.2,8.69c0.22,1.73 -0.69,3.62 -1.12,5.43c-0.41,1.71 -1.09,3.4 -1.23,5.13c-0.51,6 -0.85,12.01 -1.59,18.15c-3.14,-2.04 -4.53,-4.62 -4.6,-8.42c-0.05,-3.45 -1.77,-6.83 -2.24,-10.31c-0.41,-2.97 -0.09,-6.04 -0.09,-9.3c-6.25,-3.22 -0.42,-10.17 -2.9,-14.86c-3.48,-0.85 -6.32,-2.82 -6.54,-6.9c-0.27,-5.15 -0.06,-10.32 -0.06,-15.49c0,-9.99 -0.01,-19.99 0,-29.99c0,-2.22 -0.15,-4.46 0.19,-6.64c0.09,-0.6 1.67,-0.98 1.44,-0.86c1.2,-5.72 1.75,-10.85 3.39,-15.61c2.28,-6.62 4.74,-13.08 5.07,-20.2c0.1,-2.24 0.82,-4.75 2.08,-6.57c3.14,-4.53 3.83,-9.69 5.45,-14.65c1.75,-5.36 2.15,-12.89 9.28,-15.87c1.5,-0.63 2.22,-3.12 3.38,-4.88c0.79,0.5 1.58,1 2.39,1.51c1.07,-2.42 -0.27,-6.4 4.37,-6.43c0.32,0 0.52,-1.71 0.98,-2.52c1.68,-2.91 2.28,-7.12 7.25,-6.33c0.24,0.04 0.92,-0.78 0.86,-1.09c-0.17,-0.81 -0.63,-1.57 -0.49,-1.26c3.33,-2.94 6.42,-5.67 9.5,-8.4c-0.5,-0.57 -1,-1.14 -1.5,-1.72c1.06,0.79 2.12,1.57 3.36,2.7z" fill="#DCDCDC" id="svg_16" opacity="1"/>
  <path d="m439.36,340.98c-1.79,-2.61 -3.57,-5.22 -5.38,-7.81c-0.94,-1.36 -1.95,-2.67 -2.88,-4.04c-0.51,-0.75 -0.78,-2.17 -1.37,-2.3c-5.98,-1.27 -5,-5.84 -4.68,-9.89c0.32,-4.07 -0.91,-5.23 -4.91,-3.91c-2.22,0.74 -4.42,1.55 -7.6,2.67c0.77,-2.24 1.07,-3.16 1.4,-4.07c1.66,-4.64 0.72,-5.78 -4.08,-5.35c-1.49,0.13 -4.13,0 -4.35,-0.65c-0.68,-2.05 -1.4,-4.98 -0.43,-6.53c2.08,-3.3 1.6,-6.36 1.79,-9.94c0.51,-9.8 0.72,-19.84 6.43,-28.74c4.71,-7.34 5.71,-15.71 4.91,-24.45c-0.51,-5.59 -1.16,-11.18 3.32,-16.37c2.1,-2.43 1.54,-7.28 1.9,-11.06c1.37,-14.02 3.17,-28.03 3.79,-42.1c0.83,-18.84 2.65,-37.85 -1.56,-56.48c-2.48,-10.95 -6.57,-21.55 -9.98,-32.29c-1.51,-4.75 -3.07,-9.48 -4.72,-14.19c-1.9,-5.45 -5.3,-9.16 -11.08,-11.14c-14.45,-4.95 -25.66,-14.86 -36.63,-25.04c-1.67,-1.55 -3.73,-2.69 -5.93,-4.52c-0.34,-0.98 -0.36,-1.46 -0.38,-1.94c3.74,-3.11 7.53,-2.9 11.14,0.73c6.38,6.4 12.76,12.78 21.31,16.35c0.52,0.21 1.03,0.45 1.56,0.58c8.58,2.03 8.58,2.02 9.59,11.81c2.36,-0.42 4.69,-0.85 7.03,-1.24c3.22,-0.55 5.65,3.56 7.03,6.01c3.54,6.29 -0.97,14.42 5.27,19.97c1.41,1.25 0.94,4.39 1.99,6.3c5.92,10.78 8.41,22.25 8.24,34.52c-0.11,8.24 0.64,16.48 0.9,24.72c0.36,11.38 0.99,22.77 0.75,34.14c-0.1,4.79 -2.24,9.51 -3.22,14.32c-0.41,2.05 -0.15,4.23 -0.33,6.34c-0.7,8.47 -1.55,16.93 -2.1,25.41c-0.1,1.48 1.3,3 1.45,4.56c0.2,2.15 0.73,5.1 -0.4,6.39c-3.35,3.83 -1.22,5.77 0.52,7c-0.88,7.99 -1.69,15.26 -2.55,23.12c-5.46,1.73 -6.66,6.85 -7.24,12.63c-0.19,1.92 -2.02,3.63 -2.76,5.56c-0.39,1.01 -0.54,2.65 0.02,3.4c1.84,2.49 0.66,4.32 -0.29,6.74c-1.25,3.13 -1.75,6.36 0.78,9.86c2.83,3.92 7.35,5.29 10.41,8.55c3.84,4.08 7.38,8.44 10.99,12.73c0.93,1.11 1.5,2.53 2.46,3.61c6.13,6.9 6.28,8.47 0.72,15.95c-0.51,0.07 -0.85,0.08 -0.85,0.08z" fill="#D9D9D9" id="svg_17" opacity="1"/>
  <path d="m342.97,21.08c-0.6,-0.08 -1.2,-0.15 -1.88,-0.55c-0.24,-0.3 -0.39,-0.28 -0.53,-0.25c-2.47,-1.26 -5.08,-2.3 -7.37,-3.83c-10.65,-7.13 -21.64,-12.03 -34.9,-7.72c-6.39,2.08 -12.91,2.25 -19.69,0.77c-5.54,-1.22 -11.41,-0.86 -17.12,-1.33c-0.84,-0.07 -1.61,-0.86 -2.39,-1.69c4.76,-3.15 9.24,-3.43 14.53,-1.02c3.02,1.38 7.17,0.58 10.78,0.32c6.6,-0.47 12.72,-4.41 19.65,-2.87c0.51,0.11 1.5,-0.47 1.61,-0.3c3.72,5.7 8.64,1.63 12.91,1.42c8.85,-0.44 22.77,6.97 25.34,14.75c-0.39,1.2 -0.66,1.75 -0.94,2.3z" fill="#D9D9D9" id="svg_18" opacity="1"/>
  <path d="m439.18,341.32c0.18,-0.34 0.52,-0.35 0.69,-0.33c1.14,0.34 2.14,0.98 3.09,0.93c5.06,-0.3 8.78,2.18 8.98,7.14c0.34,8.94 0,17.9 0.11,26.85c0.03,3.05 0.53,6.09 0.81,9.54c-1.19,-3.43 -4.3,-7.93 -3.22,-10.94c3.11,-8.74 0.74,-16.86 0.11,-25.23c-0.67,-0.03 -1.34,-0.06 -2.01,-0.09c-0.22,3.31 -0.43,6.62 -0.64,9.85c-2.9,-0.86 -6.14,-1.82 -10.49,-3.1c1.09,-3.34 2.15,-6.59 3.53,-10.81c-0.1,-0.31 -0.63,-1.89 -0.96,-3.81z" fill="#D2D2D2" id="svg_19" opacity="1"/>
  <path d="m251.58,7.11c-0.41,1.63 -1.23,3.28 -2.53,5.93c-4.49,1.11 -10.38,2.56 -16.69,3.99c2.22,-1.38 4.88,-2.68 7.48,-4.09c1.38,-0.75 3.76,-1.63 3.81,-2.55c0.36,-6.53 4.22,-4.08 7.93,-3.28z" fill="#DCDCDC" id="svg_20" opacity="1"/>
  <path d="m343.32,21.26c-0.07,-0.73 0.2,-1.28 0.61,-2.11c4.14,0.41 8.15,1.1 12.58,1.74c0.45,0.43 0.47,0.91 0.49,1.75c-4.44,-0.16 -8.89,-0.69 -13.68,-1.38z" fill="#DCDCDC" id="svg_21" opacity="1"/>
  <path d="m456.97,396.57c-1.08,-0.09 -2.25,-0.48 -3.16,-1.27c1.19,0.05 2.13,0.5 3.16,1.27z" fill="#DCDCDC" id="svg_22" opacity="1"/>
  <path d="m454,394.63c-0.25,0.45 -0.55,0.64 -0.84,0.83c-0.26,-0.46 -0.53,-0.91 -0.43,-1.53c0.65,0.04 0.94,0.24 1.27,0.7z" fill="#DCDCDC" id="svg_23" opacity="1"/>
  <path d="m274.97,331.66c-1.98,-1.03 -3.78,-1.95 -5.15,-3.32c-1.01,-1.01 -1.45,-2.59 -2.14,-3.92c1.79,-0.45 3.86,-1.68 5.32,-1.17c3.1,1.07 6.27,2.6 8.71,4.74c5.66,4.96 12.74,2.91 16.63,0.18c7.93,-5.58 16.45,-7.39 26.59,-8.96c1.72,4.91 3.55,10.16 5.38,15.41c1.26,0.9 2.99,2.22 4.8,3.42c0.92,0.6 2.13,1.56 2.95,1.35c4.61,-1.14 7.47,1.85 10.56,4.19c2.83,2.13 2.98,4.96 1.48,7.98c-3.16,6.4 -3.16,6.4 -0.98,12.67c-7.81,-3.12 -14.16,0.03 -20.68,2.92c-2.15,0.95 -4.9,0.83 -7.35,0.74c-16.07,-0.55 -32.12,-1.42 -48.19,-1.8c-8.75,-0.2 -17.52,0.41 -26.28,0.54c-1.75,0.03 -3.51,-0.4 -5.91,-0.7c2.31,-4.12 5.4,-3.96 8.74,-3.82c4.9,0.21 9.82,0.09 14.73,-0.04c9.9,-0.27 19.81,-0.65 29.71,-0.98c1.62,-0.06 3.26,0.08 4.85,-0.16c6.52,-0.96 13.02,-1.96 19.5,-3.15c1.2,-0.22 2.23,-1.37 3.34,-2.1c-0.97,-0.73 -1.83,-1.81 -2.92,-2.14c-3.82,-1.17 -7.67,-2.69 -11.59,-2.94c-5.53,-0.36 -11.19,-0.13 -16.69,0.65c-5.91,0.84 -7.86,-1.2 -7.71,-7.1c0.12,-4.47 -1.61,-8.99 -2.67,-14.21c-1.77,0.62 -3.23,1.12 -5.03,1.72z" fill="#6A6A6A" id="svg_24" opacity="1"/>
  <path d="m253.27,570.22c-0.69,1.3 -1.23,2.28 -1.85,3.42c-4.17,-7.2 -3.68,-13.22 0.29,-19.22c2.64,-3.98 3.91,-8.62 2.13,-13.63c-0.48,-1.37 -0.03,-3.18 0.32,-4.71c0.4,-1.79 1.33,-3.47 1.73,-5.26c0.84,-3.67 5.46,-3.87 9.77,-0.26c-1.15,1.09 -2.29,2.16 -4.22,3.99c2.78,0 4.54,0 6.33,0c-0.38,-6.47 0.61,-5.67 6.75,-6.13c-0.72,3.69 -1.43,7.36 -2.45,12.62c6.5,-2.53 11.51,-4.47 17.34,-6.73c-0.31,3.73 -0.67,7.98 -1.04,12.22c-0.42,-0.03 -0.85,-0.06 -1.28,-0.09c-1.05,-1.91 -2.11,-3.82 -3.16,-5.73c-1.75,1.29 -3.5,2.58 -5.7,4.21c-0.66,-0.41 -1.84,-1.13 -3.32,-2.03c-0.42,0.8 -1.26,1.75 -1.06,2.12c3.54,6.36 -1.41,10.35 -4.35,14.65c-0.74,1.09 -3.66,0.92 -5.59,0.93c-2.17,0.01 -3.25,0.3 -4.31,2.77c-1.11,2.58 -4.04,4.39 -6.33,6.86z" fill="#777777" id="svg_25" opacity="1"/>
  <path d="m312.76,385.68c-9.44,0 -18.41,0 -27.37,0c-0.12,-0.81 -0.24,-1.62 -0.36,-2.44c1.4,-0.47 2.77,-1.26 4.19,-1.38c7.72,-0.61 15.46,-0.99 23.18,-1.6c3.45,-0.28 5.86,0.55 6.48,5.07c-1.92,0.12 -3.79,0.23 -6.12,0.35z" fill="#7C7C7C" id="svg_26" opacity="1"/>
  <path d="m261.66,461.08c-0.76,-0.58 -1.11,-1.55 -1.7,-1.72c-8.37,-2.49 -10.58,-5.47 -10.66,-14.63c5.62,0.67 11.82,7.61 13.82,15.81c-0.34,0.43 -0.75,0.47 -1.46,0.54z" fill="#D2D2D2" id="svg_27" opacity="1"/>
  <path d="m289.57,513.84c0.11,4.28 0.11,8.15 0.11,12.02c-0.51,0.14 -1.01,0.29 -1.52,0.44c-1.38,-1.94 -2.76,-3.88 -4.15,-5.83c0.5,-0.03 1,-0.06 1.5,-0.08c0.15,-3.32 0.56,-6.64 0.4,-9.94c-0.18,-3.61 3.1,-6.52 7.69,-6c-1.41,3.06 -2.77,6.03 -4.03,9.39z" fill="#8D8D8D" id="svg_28" opacity="1"/>
  <path d="m170.31,561.1c-1.06,-0.68 -1.91,-1.13 -3.5,-1.99c3.18,-1.48 5.72,-2.66 7.99,-3.72c1.97,1.85 3.84,3.62 5.92,5.58c-3.63,4.18 -8.26,3.33 -13.1,2.58c1.1,-0.84 2,-1.53 2.69,-2.45z" fill="#8D8D8D" id="svg_29" opacity="1"/>
  <path d="m313.9,556.21c-0.58,4.94 -1.14,9.46 -1.75,14.37c-0.89,-0.52 -2.35,-1 -2.33,-1.41c0.27,-5.93 0.74,-11.85 1.16,-17.77c0.69,-0.01 1.38,-0.02 2.08,-0.03c0.28,1.47 0.57,2.94 0.84,4.84z" fill="#959595" id="svg_30" opacity="1"/>
  <path d="m251.72,481.06c0.37,0.06 0.42,0.46 0.38,0.66c-0.74,2.66 -1.39,5.15 -2.14,7.6c-0.49,1.61 -1.12,3.17 -1.96,5.53c-3.75,-4.94 -2.59,-9.18 -0.85,-13.21c0.3,-0.69 2.75,-0.45 4.57,-0.58z" fill="#888888" id="svg_31" opacity="1"/>
  <path d="m258.75,484.01c0.19,-0.54 0.55,-0.75 1.22,-1c2.23,0.34 4.13,0.72 6.38,1.17c-0.21,1.76 -0.42,3.44 -0.64,5.25c-4.77,1.52 -6.67,-0.58 -6.96,-5.42z" fill="#858585" id="svg_32" opacity="1"/>
  <path d="m413.98,517.63c0.31,-0.6 0.51,-0.72 0.96,-0.62c2.19,0.64 4.22,1.21 7.48,2.13c-3.69,1.78 -6.14,3.1 -8.71,4.12c-0.65,0.26 -1.67,-0.41 -2.52,-0.66c0.86,-1.54 1.72,-3.08 2.79,-4.97z" fill="#888888" id="svg_33" opacity="1"/>
  <path d="m314.99,540.3c-0.46,2.67 -1,4.95 -1.53,7.22c-0.64,-0.02 -1.28,-0.04 -1.92,-0.06c0,-2.69 -0.57,-5.54 0.16,-8.01c0.67,-2.26 2.41,-1.79 3.29,0.85z" fill="#858585" id="svg_34" opacity="1"/>
  <path d="m476.01,486.64c-0.64,-0.6 -0.94,-1.06 -1.23,-1.52c2.48,-0.77 4.97,-1.54 7.45,-2.3c0.23,0.96 0.46,1.92 0.69,2.89c-2.19,0.35 -4.38,0.71 -6.91,0.93z" fill="#888888" id="svg_35" opacity="1"/>
  <path d="m375.07,549.46c0.28,-0.48 0.68,-0.56 1.4,-0.61c1.98,0.94 3.65,1.85 5.33,2.76c0.04,0.48 0.09,0.95 0.13,1.43c-1.79,0.33 -3.66,1.09 -5.35,0.79c-0.67,-0.12 -0.93,-2.57 -1.51,-4.37z" fill="#888888" id="svg_36" opacity="1"/>
  <path d="m259.98,462.81c-0.18,-0.07 -0.35,-0.4 -0.25,-0.76c0.27,0.14 0.27,0.32 0.25,0.76z" fill="#D2D2D2" id="svg_37" opacity="1"/>
  <path d="m558.02,452c0.09,0.07 0.19,0.14 0.29,0.21c-0.07,0 -0.15,0 -0.24,-0.12c-0.03,-0.13 -0.05,-0.09 -0.05,-0.09z" fill="#686868" id="svg_38" opacity="1"/>
  <path d="m558.06,451.95c-0.17,-0.13 -0.36,-0.25 -0.55,-0.37c0.11,0.04 0.22,0.08 0.42,0.27c0.09,0.15 0.11,0.11 0.13,0.1z" fill="#686868" id="svg_39" opacity="1"/>
  <path d="m533.67,558.97c1.14,0.31 2.67,1.04 2.64,1.1c-1.11,2.58 -2.36,5.1 -4.18,7.41c-1.24,-3.19 -1.94,-6.13 1.54,-8.51z" fill="#818181" id="svg_40" opacity="1"/>
  <path d="m239.03,574.25c0.83,-0.16 1.44,-0.16 2.06,-0.16c-0.01,0.21 -0.02,0.42 -0.03,0.63c-0.75,-0.1 -1.5,-0.2 -2.03,-0.47z" fill="#DCDCDC" id="svg_41" opacity="1"/>
  <path d="m252.38,290.6c-15.83,3.8 -31.35,5.49 -47.25,3.12c-13.58,-2.02 -20.09,-10.96 -23.04,-23.02c-1.75,-7.16 -2.35,-14.69 -2.77,-22.09c-0.39,-6.84 4.61,-10.75 11.31,-9.68c2.52,0.4 9.22,7.99 8.8,10.58c-0.53,3.32 1.25,3.88 3.65,3.69c4.45,-0.36 9.19,-0.17 13.22,-1.74c3.83,-1.51 5.71,-0.2 8.75,1.54c3.43,1.98 7.84,2.27 12.71,3.52c0.03,0.09 0.47,1.57 1.19,3.96c1.29,-2.31 2.1,-3.78 2.94,-5.29c5.28,4.82 3.93,7.66 -6.31,14.51c1.77,0 3.67,0.43 5.27,-0.08c5.36,-1.68 10.71,-3.47 15.84,-5.71c1.97,-0.86 4.07,-2.77 4.86,-4.71c1.31,-3.22 2.88,-4.26 6.32,-3.66c1.03,0.17 2.44,-1.83 3.99,-3.09c-1.87,15.19 -2.82,30.42 -19.48,38.15z" fill="#B5B5B5" id="svg_42" opacity="1"/>
  <path d="m395.39,268.01c-2.12,8.36 -7.45,13.63 -15.74,15.69c-16.85,4.19 -33.85,6.74 -51.12,2.62c-9.48,-2.27 -16.62,-10.78 -17.97,-20.91c5.33,-1.39 10.19,-1.59 15.74,0.87c12.22,5.41 24.52,5.44 35.78,-3.24c4.87,-3.74 10.06,-7.07 14.76,-11.01c3.77,-3.17 7.54,-1.76 11.28,-0.75c0.83,0.22 1.17,2.4 1.67,3.69c1.33,3.43 2.63,6.86 4.2,10.9c0.64,1.12 1.02,1.63 1.4,2.14z" fill="#9F9F9F" id="svg_43" opacity="1"/>
  <path d="m353,463.01c0.34,1.18 0.38,2.57 1.06,3.5c1.39,1.89 3.12,3.53 4.27,4.8c1.59,-0.33 3.31,-0.68 5.02,-1.03c0.32,0.41 0.64,0.83 0.95,1.24c-3.87,1.34 -4.2,2.94 0.25,4.89c-0.34,0.38 -0.67,0.76 -1.01,1.15c-3.68,0.91 -7.46,1.54 -11.02,2.82c-3.24,1.15 -6.18,3.15 -9.36,4.51c-3.77,1.61 -7.74,3.61 -10.8,-1.29c-2.11,1.45 -4.11,2.82 -6.44,4.42c3.94,3.71 2.96,7.1 -0.76,10.41c-1.2,1.06 -2.24,2.59 -2.74,4.11c-0.89,2.72 -2.56,3.45 -5.23,3.48c-1.2,0.02 -2.73,1 -3.42,2.02c-0.35,0.51 0.58,2.43 1.42,3.1c4.77,3.82 -1.4,6.12 -0.59,9.73c-4.97,-4.05 -6.23,-10.24 -3.92,-16.98c0.6,-1.73 1.72,-3.4 1.83,-5.14c0.39,-6.42 1.53,-10.82 8.64,-14.62c8.77,-4.69 15.38,-13.34 23.16,-20.01c2.3,-1.98 5.39,-3.06 8.36,-4.02c0.27,1.32 0.3,2.11 0.33,2.91z" fill="#959595" id="svg_44" opacity="1"/>
  <path d="m349.99,254.02c2.43,-0.52 4.87,-1.04 7.31,-1.56c-0.02,-0.44 -0.03,-0.87 -0.05,-1.3c1.31,0.61 2.64,1.16 3.9,1.83c1.24,0.67 2.41,1.47 3.61,2.2c-0.92,1.47 -1.48,3.51 -2.8,4.32c-6.57,4.02 -13.72,5.82 -21.34,3.76c-1.77,-0.47 -3.2,-2.22 -5.4,-3.82c5.01,-2.34 8.6,-5.65 13.53,-2.99c0.06,0.04 0.78,-1.16 1.22,-2.12c0.03,-0.34 0.02,-0.32 0.02,-0.32z" fill="#858585" id="svg_45" opacity="1"/>
  <path d="m399.02,454c-2.54,-3.91 -5.09,-7.82 -7.13,-10.96c1.71,-2.91 2.96,-5.04 4.41,-7.51c1.19,0.17 2.96,0.43 3.82,0.55c-0.62,3.4 -1.72,6.69 -1.47,9.87c0.07,0.86 4.23,1.39 6.93,2.06c0.42,-0.01 0.4,-0.03 0.4,-0.03c-0.26,1.74 -0.51,3.48 -0.78,5.36c-1.69,0.17 -3.58,0.37 -5.84,0.62c-0.36,0.04 -0.34,0.04 -0.34,0.04z" fill="#818181" id="svg_46" opacity="1"/>
  <path d="m387.79,461.39c-0.5,1.25 -0.89,2.14 -1.51,3.55c-1.3,-2.89 -2.09,-5.51 -3.56,-7.67c-1.22,-1.78 -3.43,-2.87 -4.85,-4.55c-1.34,-1.59 -2.23,-3.56 -2.64,-5.87c3.73,1.21 4.55,7.4 10.45,3.65c0.83,3.92 1.52,7.22 2.11,10.89z" fill="#7C7C7C" id="svg_47" opacity="1"/>
  <path d="m418.73,434.88c-5.46,0 -10.8,-0.35 -16.59,-0.73c0.93,-4.3 2.49,-5.78 6.12,-4.52c2.17,0.74 4.61,0.73 6.71,1.6c1.49,0.63 2.6,2.16 3.76,3.65z" fill="#7C7C7C" id="svg_48" opacity="1"/>
  <path d="m353.3,463.13c-0.33,-0.92 -0.36,-1.71 -0.36,-2.76c0.27,-3.57 1.47,-6.01 4.35,-6.01c1.52,2.15 2.91,3.66 3.74,5.44c0.62,1.33 0.52,3 0.74,4.53c-0.58,0.09 -1.15,0.19 -1.73,0.29c-0.72,-1.22 -1.44,-2.44 -2.63,-4.45c0,2.28 0,3.7 0,5.74c-1.52,-1.06 -2.66,-1.86 -4.11,-2.78z" fill="#888888" id="svg_49" opacity="1"/>
  <path d="m333.92,490.13c2.78,0.53 5.14,1.02 7.5,1.51c0.06,0.49 0.13,0.97 0.19,1.45c-3.11,0.56 -6.22,1.2 -9.36,1.57c-0.31,0.04 -1.35,-1.76 -1.12,-2.29c0.41,-0.93 1.55,-1.54 2.79,-2.24z" fill="#818181" id="svg_50" opacity="1"/>
  <path d="m335.52,250.96c1.45,0.94 2.5,1.8 3.56,2.67c-0.2,0.65 -0.41,1.29 -0.62,1.94c-3.31,-0.51 -6.63,-1.02 -9.94,-1.53c-0.04,-0.56 -0.08,-1.12 -0.11,-1.68c2.24,-0.49 4.48,-0.98 7.11,-1.4z" fill="#818181" id="svg_51" opacity="1"/>
  <path d="m434.48,367.37c1.16,1.27 2,2.37 2.93,3.61c-4.21,2.98 -6.54,0.42 -10.11,-2.24c2.91,-0.66 4.88,-1.1 7.18,-1.37z" fill="#818181" id="svg_52" opacity="1"/>
  <path d="m431.88,379.3c0.96,0.7 1.65,1.15 2.34,1.6c0.88,0.57 1.89,1.04 2.55,1.8c0.2,0.22 -0.56,1.86 -0.94,1.88c-1.06,0.07 -2.4,-0.06 -3.17,-0.68c-1.72,-1.4 -3.15,-3.14 -4.07,-5.68c1,0.28 2.01,0.56 3.29,1.08z" fill="#777777" id="svg_53" opacity="1"/>
  <path d="m399,453.99c-0.46,0.45 -1.17,0.83 -1.34,1.37c-0.53,1.68 -0.84,3.43 -1.23,5.15c-1.58,-1.24 -3.15,-2.47 -4.73,-3.71c0.02,-0.49 0.04,-0.98 0.07,-1.48c2.15,-0.43 4.3,-0.86 6.85,-1.31c0.4,-0.01 0.38,-0.01 0.38,-0.02z" fill="#777777" id="svg_54" opacity="1"/>
  <path d="m426.35,418.47c-1.14,-1.13 -1.98,-2.12 -3.13,-3.48c-0.79,1.35 -1.39,2.38 -2.18,3.73c-0.57,-0.62 -1.35,-1.11 -1.31,-1.51c0.11,-1.09 0.48,-3.02 0.9,-3.06c1.76,-0.17 3.77,-0.17 5.29,0.58c0.71,0.34 0.51,2.53 0.43,3.74z" fill="#6A6A6A" id="svg_55" opacity="1"/>
  <path d="m414.39,442.1c-2.21,0.1 -4.4,-0.14 -7.53,-0.47c1.01,-1.84 1.71,-3.1 2.41,-4.36c1.71,1.5 3.43,3 5.12,4.83z" fill="#7C7C7C" id="svg_56" opacity="1"/>
  <path d="m431.9,481.92c0.54,-5.53 4.67,-5.16 8.16,-5.83c0.27,0.43 0.54,0.86 0.81,1.29c-2.68,1.55 -5.37,3.1 -8.45,4.65c-0.41,-0.01 -0.52,-0.11 -0.52,-0.11z" fill="#777777" id="svg_57" opacity="1"/>
  <path d="m163.92,126.92c0.77,-6.01 2.73,-7.69 8.28,-7.15c-2.48,2.3 -5.01,4.63 -7.87,7.09c-0.34,0.13 -0.41,0.06 -0.41,0.06z" fill="#818181" id="svg_58" opacity="1"/>
  <path d="m387.08,540.23c-2.33,0.64 -4.65,0.97 -6.96,1.3c-0.11,-0.35 -0.23,-0.71 -0.34,-1.06c1.46,-1.15 2.93,-2.29 4.66,-3.65c0.6,0.69 1.63,1.9 2.64,3.41z" fill="#777777" id="svg_59" opacity="1"/>
  <path d="m369.67,455.9c-1.07,0.92 -1.85,1.7 -3.19,3.04c0,-3.09 0,-5.57 0,-9.59c1.57,2.88 2.53,4.64 3.19,6.55z" fill="#6A6A6A" id="svg_60" opacity="1"/>
  <path d="m395.6,267.74c-0.59,-0.24 -0.97,-0.75 -1.41,-1.58c1.26,-4.01 2.6,-7.72 3.93,-11.42c0.41,0.12 0.81,0.24 1.22,0.36c-1.17,4.13 -2.35,8.25 -3.74,12.64z" fill="#6A6A6A" id="svg_61" opacity="1"/>
  <path d="m164.02,127.02c-0.67,2.27 -1.38,4.5 -2.09,6.74c-0.75,-0.34 -1.5,-0.69 -2.25,-1.03c1.19,-1.88 2.38,-3.77 3.91,-5.73c0.33,-0.08 0.4,-0.01 0.43,0.02z" fill="#818181" id="svg_62" opacity="1"/>
  <path d="m375.14,455.93c-0.48,-0.47 -0.66,-0.97 -0.84,-1.47c0.7,0.07 1.4,0.13 2.1,0.19c-0.32,0.42 -0.64,0.84 -1.26,1.28z" fill="#6A6A6A" id="svg_63" opacity="1"/>
  <path d="m387.7,450.46c0.33,-0.52 0.86,-0.83 1.39,-1.14c0.11,0.26 0.23,0.52 0.34,0.78c-0.51,0.19 -1.02,0.37 -1.73,0.36z" fill="#7C7C7C" id="svg_64" opacity="1"/>
  <path d="m432.06,482.08c-0.1,0.04 -0.25,0.02 -0.28,-0.08c0.12,-0.08 0.23,0.02 0.28,0.08z" fill="#777777" id="svg_65" opacity="1"/>
  <path d="m406.01,448.01c0.01,0.01 0.23,-0.38 0.23,-0.38c0,0 -0.03,0.29 -0.15,0.32c-0.11,0.03 -0.09,0.05 -0.08,0.06z" fill="#818181" id="svg_66" opacity="1"/>
  <path d="m428.54,420.48c0.02,0.05 -0.03,-0.05 0,0z" fill="#6A6A6A" id="svg_67" opacity="1"/>
  <path d="m391,299c0.16,-0.21 0.32,-0.41 0.48,-0.61c-0.01,0.25 -0.02,0.51 -0.25,0.7c-0.22,-0.07 -0.23,-0.09 -0.23,-0.09z" fill="#DCDCDC" id="svg_68" opacity="1"/>
  <path d="m350.01,254c-0.1,-0.06 -0.19,-0.11 -0.29,-0.15c0.07,-0.03 0.14,-0.06 0.24,0.04c0.03,0.13 0.04,0.11 0.05,0.11z" fill="#858585" id="svg_69" opacity="1"/>
  <path d="m340.61,20.3c0.09,-0.05 0.24,-0.07 0.25,0.02c-0.13,0.11 -0.19,0 -0.25,-0.02z" fill="#DCDCDC" id="svg_70" opacity="1"/>
 </g>
</svg>